<mxfile host="app.diagrams.net" modified="2024-04-22T12:42:34.266Z" agent="Mozilla/5.0 (Windows NT 10.0; Win64; x64) AppleWebKit/537.36 (KHTML, like Gecko) Chrome/123.0.0.0 Safari/537.36 Edg/123.0.0.0" etag="fNXlsJ44UqG6NSuHNWvT" version="24.2.7" type="github">
  <diagram id="7Gc6tMnncwXWJHUpQeZY" name="第 1 页">
    <mxGraphModel dx="402" dy="471" grid="0" gridSize="10" guides="1" tooltips="1" connect="1" arrows="1" fold="1" page="0" pageScale="1" pageWidth="827" pageHeight="1169" math="0" shadow="0">
      <root>
        <mxCell id="0" />
        <mxCell id="1" parent="0" />
        <mxCell id="gcqi9XU0KOSMAMwN36rl-3" value="" style="edgeStyle=none;curved=1;rounded=0;orthogonalLoop=1;jettySize=auto;html=1;fontSize=12;startSize=8;endSize=8;" edge="1" parent="1" source="gcqi9XU0KOSMAMwN36rl-1" target="gcqi9XU0KOSMAMwN36rl-2">
          <mxGeometry relative="1" as="geometry" />
        </mxCell>
        <mxCell id="gcqi9XU0KOSMAMwN36rl-1" value="用户" style="whiteSpace=wrap;html=1;" vertex="1" parent="1">
          <mxGeometry x="300" y="153" width="80" height="30" as="geometry" />
        </mxCell>
        <mxCell id="gcqi9XU0KOSMAMwN36rl-9" style="edgeStyle=none;curved=1;rounded=0;orthogonalLoop=1;jettySize=auto;html=1;exitX=1;exitY=0.25;exitDx=0;exitDy=0;fontSize=12;startSize=8;endSize=8;" edge="1" parent="1" source="gcqi9XU0KOSMAMwN36rl-2" target="gcqi9XU0KOSMAMwN36rl-8">
          <mxGeometry relative="1" as="geometry" />
        </mxCell>
        <mxCell id="gcqi9XU0KOSMAMwN36rl-22" value="" style="edgeStyle=none;curved=1;rounded=0;orthogonalLoop=1;jettySize=auto;html=1;fontSize=12;startSize=8;endSize=8;exitX=0.75;exitY=1;exitDx=0;exitDy=0;entryX=0.75;entryY=0;entryDx=0;entryDy=0;" edge="1" parent="1" source="gcqi9XU0KOSMAMwN36rl-2" target="gcqi9XU0KOSMAMwN36rl-21">
          <mxGeometry relative="1" as="geometry" />
        </mxCell>
        <mxCell id="gcqi9XU0KOSMAMwN36rl-2" value="服务器" style="whiteSpace=wrap;html=1;" vertex="1" parent="1">
          <mxGeometry x="300" y="221" width="80" height="90" as="geometry" />
        </mxCell>
        <mxCell id="gcqi9XU0KOSMAMwN36rl-7" value="&lt;font style=&quot;font-size: 9px;&quot;&gt;输入账号密码&lt;/font&gt;" style="text;html=1;align=center;verticalAlign=middle;resizable=0;points=[];autosize=1;strokeColor=none;fillColor=none;fontSize=16;" vertex="1" parent="1">
          <mxGeometry x="330" y="183" width="80" height="30" as="geometry" />
        </mxCell>
        <mxCell id="gcqi9XU0KOSMAMwN36rl-11" style="edgeStyle=none;curved=1;rounded=0;orthogonalLoop=1;jettySize=auto;html=1;exitX=1;exitY=0.5;exitDx=0;exitDy=0;fontSize=12;startSize=8;endSize=8;" edge="1" parent="1" source="gcqi9XU0KOSMAMwN36rl-8" target="gcqi9XU0KOSMAMwN36rl-10">
          <mxGeometry relative="1" as="geometry" />
        </mxCell>
        <mxCell id="gcqi9XU0KOSMAMwN36rl-8" value="&lt;font style=&quot;font-size: 11px;&quot;&gt;验证&lt;/font&gt;&lt;div style=&quot;font-size: 11px;&quot;&gt;&lt;font style=&quot;font-size: 11px;&quot;&gt;账号密码&lt;/font&gt;&lt;/div&gt;" style="whiteSpace=wrap;html=1;" vertex="1" parent="1">
          <mxGeometry x="404" y="226" width="60" height="35" as="geometry" />
        </mxCell>
        <mxCell id="gcqi9XU0KOSMAMwN36rl-10" value="&lt;font style=&quot;font-size: 11px;&quot;&gt;生成 Token&lt;/font&gt;&lt;div style=&quot;font-size: 11px;&quot;&gt;&lt;font style=&quot;font-size: 11px;&quot;&gt;存入 Redis&lt;/font&gt;&lt;/div&gt;" style="whiteSpace=wrap;html=1;" vertex="1" parent="1">
          <mxGeometry x="500" y="223" width="70" height="40" as="geometry" />
        </mxCell>
        <mxCell id="gcqi9XU0KOSMAMwN36rl-14" value="" style="endArrow=classic;html=1;rounded=0;fontSize=12;startSize=8;endSize=8;edgeStyle=orthogonalEdgeStyle;entryX=1;entryY=0.75;entryDx=0;entryDy=0;exitX=1;exitY=0.5;exitDx=0;exitDy=0;" edge="1" parent="1" source="gcqi9XU0KOSMAMwN36rl-10" target="gcqi9XU0KOSMAMwN36rl-2">
          <mxGeometry width="50" height="50" relative="1" as="geometry">
            <mxPoint x="579" y="245.75" as="sourcePoint" />
            <mxPoint x="390" y="288.25" as="targetPoint" />
            <Array as="points">
              <mxPoint x="580" y="243" />
              <mxPoint x="580" y="289" />
            </Array>
          </mxGeometry>
        </mxCell>
        <mxCell id="gcqi9XU0KOSMAMwN36rl-15" value="&lt;span style=&quot;font-size: 9px;&quot;&gt;返回 Token&lt;/span&gt;" style="text;html=1;align=center;verticalAlign=middle;resizable=0;points=[];autosize=1;strokeColor=none;fillColor=none;fontSize=16;" vertex="1" parent="1">
          <mxGeometry x="399" y="281" width="70" height="30" as="geometry" />
        </mxCell>
        <mxCell id="gcqi9XU0KOSMAMwN36rl-16" value="&lt;span style=&quot;font-size: 9px;&quot;&gt;正确&lt;/span&gt;" style="text;html=1;align=center;verticalAlign=middle;resizable=0;points=[];autosize=1;strokeColor=none;fillColor=none;fontSize=16;" vertex="1" parent="1">
          <mxGeometry x="459" y="216.5" width="40" height="30" as="geometry" />
        </mxCell>
        <mxCell id="gcqi9XU0KOSMAMwN36rl-32" style="edgeStyle=none;curved=1;rounded=0;orthogonalLoop=1;jettySize=auto;html=1;entryX=0.5;entryY=1;entryDx=0;entryDy=0;fontSize=12;startSize=8;endSize=8;" edge="1" parent="1">
          <mxGeometry relative="1" as="geometry">
            <mxPoint x="320" y="340" as="sourcePoint" />
            <mxPoint x="320" y="310.99999999999994" as="targetPoint" />
          </mxGeometry>
        </mxCell>
        <mxCell id="gcqi9XU0KOSMAMwN36rl-21" value="客户端&lt;div&gt;保存 Token&lt;/div&gt;" style="whiteSpace=wrap;html=1;" vertex="1" parent="1">
          <mxGeometry x="300" y="340" width="80" height="40" as="geometry" />
        </mxCell>
        <mxCell id="gcqi9XU0KOSMAMwN36rl-33" value="&lt;font style=&quot;font-size: 9px;&quot;&gt;发送携带 Token 的请求&lt;/font&gt;" style="text;html=1;align=center;verticalAlign=middle;resizable=0;points=[];autosize=1;strokeColor=none;fillColor=none;fontSize=16;" vertex="1" parent="1">
          <mxGeometry x="210" y="311" width="120" height="30" as="geometry" />
        </mxCell>
        <mxCell id="gcqi9XU0KOSMAMwN36rl-34" value="" style="endArrow=classic;html=1;rounded=0;fontSize=12;startSize=8;endSize=8;curved=1;exitX=0;exitY=0.75;exitDx=0;exitDy=0;entryX=1;entryY=0.5;entryDx=0;entryDy=0;" edge="1" parent="1" source="gcqi9XU0KOSMAMwN36rl-2" target="gcqi9XU0KOSMAMwN36rl-35">
          <mxGeometry width="50" height="50" relative="1" as="geometry">
            <mxPoint x="300" y="295.25" as="sourcePoint" />
            <mxPoint x="260" y="290" as="targetPoint" />
          </mxGeometry>
        </mxCell>
        <mxCell id="gcqi9XU0KOSMAMwN36rl-37" style="edgeStyle=none;curved=1;rounded=0;orthogonalLoop=1;jettySize=auto;html=1;fontSize=12;startSize=8;endSize=8;entryX=0.5;entryY=1;entryDx=0;entryDy=0;" edge="1" parent="1" source="gcqi9XU0KOSMAMwN36rl-35" target="gcqi9XU0KOSMAMwN36rl-38">
          <mxGeometry relative="1" as="geometry">
            <mxPoint x="236.9999999999999" y="250" as="targetPoint" />
          </mxGeometry>
        </mxCell>
        <mxCell id="gcqi9XU0KOSMAMwN36rl-35" value="&lt;font style=&quot;font-size: 11px;&quot;&gt;验证 Token&lt;/font&gt;" style="whiteSpace=wrap;html=1;" vertex="1" parent="1">
          <mxGeometry x="207" y="279" width="60" height="19" as="geometry" />
        </mxCell>
        <mxCell id="gcqi9XU0KOSMAMwN36rl-40" style="edgeStyle=none;curved=1;rounded=0;orthogonalLoop=1;jettySize=auto;html=1;entryX=0;entryY=0.25;entryDx=0;entryDy=0;fontSize=12;startSize=8;endSize=8;" edge="1" parent="1" source="gcqi9XU0KOSMAMwN36rl-38" target="gcqi9XU0KOSMAMwN36rl-2">
          <mxGeometry relative="1" as="geometry" />
        </mxCell>
        <mxCell id="gcqi9XU0KOSMAMwN36rl-38" value="&lt;font style=&quot;font-size: 11px;&quot;&gt;处理请求&lt;/font&gt;" style="whiteSpace=wrap;html=1;" vertex="1" parent="1">
          <mxGeometry x="207" y="234.5" width="60" height="19" as="geometry" />
        </mxCell>
        <mxCell id="gcqi9XU0KOSMAMwN36rl-41" value="&lt;font style=&quot;font-size: 9px;&quot;&gt;Token 有效&lt;/font&gt;" style="text;html=1;align=center;verticalAlign=middle;resizable=0;points=[];autosize=1;strokeColor=none;fillColor=none;fontSize=16;" vertex="1" parent="1">
          <mxGeometry x="199" y="251" width="70" height="30" as="geometry" />
        </mxCell>
      </root>
    </mxGraphModel>
  </diagram>
</mxfile>
